<svg width="26" height="26" viewBox="0 0 26 26" fill="none" xmlns="http://www.w3.org/2000/svg">
    <path d="M1 1H3.35868C4.41162 1 4.93809 1 5.33445 1.28568C5.73081 1.57136 5.89729 2.07081 6.23026 3.06971L7.05381 5.54035" stroke="#FED700" stroke-linecap="round"/>
    <path d="M22.1885 20.6749H7.88776C7.66649 20.6749 7.55587 20.6749 7.47194 20.6655C6.58265 20.5659 5.97345 19.7206 6.16021 18.8456C6.17783 18.7629 6.21282 18.6581 6.28279 18.4481C6.36047 18.2151 6.39931 18.0985 6.44223 17.9958C6.88156 16.943 7.87544 16.2265 9.01312 16.1427C9.12423 16.1345 9.24707 16.1345 9.49271 16.1345H17.6481" stroke="#FED700" stroke-linecap="round" stroke-linejoin="round"/>
    <path d="M17.1618 16.1344H12.5592C10.6231 16.1344 9.65513 16.1344 8.89698 15.6346C8.13883 15.1347 7.75752 14.2449 6.99486 12.4654L6.73936 11.8692C5.51423 9.01054 4.90166 7.58122 5.57456 6.56074C6.24744 5.54028 7.8025 5.54028 10.9126 5.54028H18.905C22.3844 5.54028 24.1241 5.54028 24.7803 6.671C25.4366 7.80171 24.5733 9.31224 22.8471 12.3333L22.418 13.0842C21.5674 14.5724 21.1423 15.3166 20.4376 15.7255C19.733 16.1344 18.8759 16.1344 17.1618 16.1344Z" stroke="#FED700" stroke-linecap="round"/>
    <path d="M21.4317 25.972C22.2675 25.972 22.9451 25.2944 22.9451 24.4585C22.9451 23.6227 22.2675 22.9451 21.4317 22.9451C20.5958 22.9451 19.9182 23.6227 19.9182 24.4585C19.9182 25.2944 20.5958 25.972 21.4317 25.972Z" fill="#FED700"/>
    <path d="M9.324 25.972C10.1599 25.972 10.8375 25.2944 10.8375 24.4585C10.8375 23.6227 10.1599 22.9451 9.324 22.9451C8.48814 22.9451 7.81055 23.6227 7.81055 24.4585C7.81055 25.2944 8.48814 25.972 9.324 25.972Z" fill="#FED700"/>
</svg>
