<svg xmlns="http://www.w3.org/2000/svg" width="12" height="13" viewBox="0 0 12 13" fill="none">
    <path d="M2.88513 3.60649C2.88513 3.40732 3.0466 3.24585 3.24578 3.24585H5.40964C5.60882 3.24585 5.77029 3.40732 5.77029 3.60649C5.77029 3.80567 5.60882 3.96714 5.40964 3.96714H3.24578C3.0466 3.96714 2.88513 3.80567 2.88513 3.60649Z" fill="#FED700"/>
    <path d="M3.24578 4.68848C3.0466 4.68848 2.88513 4.84994 2.88513 5.04912C2.88513 5.2483 3.0466 5.40977 3.24578 5.40977H4.68835C4.88753 5.40977 5.049 5.2483 5.049 5.04912C5.049 4.84994 4.88753 4.68848 4.68835 4.68848H3.24578Z" fill="#FED700"/>
    <path d="M4.32774 0C1.93761 0 7.24506e-06 1.93759 7.24506e-06 4.32773C7.24506e-06 5.07756 0.190997 5.78374 0.527161 6.39929L0.0138848 8.19572C-0.0228649 8.32439 0.0146062 8.46281 0.111237 8.55535C0.207876 8.64782 0.347784 8.67927 0.474702 8.63693L2.16111 8.07483C2.79852 8.44413 3.53892 8.65547 4.32774 8.65547C6.71787 8.65547 8.65547 6.71787 8.65547 4.32773C8.65547 1.93759 6.71787 0 4.32774 0V0ZM0.721296 4.32773C0.721296 2.33595 2.33596 0.721289 4.32774 0.721289C6.3195 0.721289 7.93418 2.33595 7.93418 4.32773C7.93418 6.31951 6.3195 7.93418 4.32774 7.93418C3.6175 7.93418 2.95623 7.72926 2.39854 7.37539C2.30699 7.31733 2.19415 7.30348 2.09129 7.33782L0.895256 7.73647L1.26236 6.45163C1.28964 6.35612 1.27634 6.25359 1.22556 6.16821C0.905311 5.6297 0.721296 5.00075 0.721296 4.32773V4.32773Z" fill="#FED700"/>
    <path d="M7.41225 10.0599L5.67975 9.19364C5.99694 9.10572 6.30161 8.98757 6.59042 8.84252L7.57353 9.33408L10.8193 7.71118V7.21284C10.8193 6.81447 10.4964 6.49155 10.098 6.49155H8.8909C9.00075 6.26026 9.09358 6.01929 9.16766 5.77026H10.098C10.8948 5.77026 11.5406 6.41613 11.5406 7.21284V10.8193C11.5406 11.616 10.8948 12.2619 10.098 12.2619H5.04902C4.25231 12.2619 3.60645 11.616 3.60645 10.8193V9.32557C3.84202 9.35925 4.08284 9.37671 4.32773 9.37671V10.8193C4.32773 11.2177 4.65067 11.5406 5.04902 11.5406H10.098C10.4964 11.5406 10.8193 11.2177 10.8193 10.8193V8.51765L7.73481 10.0599C7.63326 10.1106 7.51374 10.1106 7.41225 10.0599Z" fill="#FED700"/>
</svg>