<svg xmlns="http://www.w3.org/2000/svg" width="26" height="29" viewBox="0 0 26 29" fill="none">
    <path d="M8.71423 3.908C8.29983 3.908 7.9024 4.07262 7.60938 4.36565C7.31635 4.65868 7.15173 5.0561 7.15173 5.4705C7.15173 5.8849 7.31635 6.28233 7.60938 6.57536C7.9024 6.86838 8.29983 7.033 8.71423 7.033C9.12863 7.033 9.52606 6.86838 9.81909 6.57536C10.1121 6.28233 10.2767 5.8849 10.2767 5.4705C10.2767 5.0561 10.1121 4.65868 9.81909 4.36565C9.52606 4.07262 9.12863 3.908 8.71423 3.908ZM4.29236 3.908C4.61517 2.99311 5.21383 2.20087 6.0058 1.64049C6.79776 1.08011 7.74406 0.779175 8.71423 0.779175C9.68441 0.779175 10.6307 1.08011 11.4227 1.64049C12.2146 2.20087 12.8133 2.99311 13.1361 3.908H24.3392C24.7536 3.908 25.1511 4.07262 25.4441 4.36565C25.7371 4.65868 25.9017 5.0561 25.9017 5.4705C25.9017 5.8849 25.7371 6.28233 25.4441 6.57536C25.1511 6.86838 24.7536 7.033 24.3392 7.033H13.1361C12.8133 7.9479 12.2146 8.74014 11.4227 9.30052C10.6307 9.8609 9.68441 10.1618 8.71423 10.1618C7.74406 10.1618 6.79776 9.8609 6.0058 9.30052C5.21383 8.74014 4.61517 7.9479 4.29236 7.033H2.46423C2.04983 7.033 1.6524 6.86838 1.35938 6.57536C1.06635 6.28233 0.901733 5.8849 0.901733 5.4705C0.901733 5.0561 1.06635 4.65868 1.35938 4.36565C1.6524 4.07262 2.04983 3.908 2.46423 3.908H4.29236ZM18.0892 13.283C17.6748 13.283 17.2774 13.4476 16.9844 13.7406C16.6914 14.0337 16.5267 14.4311 16.5267 14.8455C16.5267 15.2599 16.6914 15.6573 16.9844 15.9504C17.2774 16.2434 17.6748 16.408 18.0892 16.408C18.5036 16.408 18.9011 16.2434 19.1941 15.9504C19.4871 15.6573 19.6517 15.2599 19.6517 14.8455C19.6517 14.4311 19.4871 14.0337 19.1941 13.7406C18.9011 13.4476 18.5036 13.283 18.0892 13.283ZM13.6674 13.283C13.9902 12.3681 14.5888 11.5759 15.3808 11.0155C16.1728 10.4551 17.1191 10.1542 18.0892 10.1542C19.0594 10.1542 20.0057 10.4551 20.7977 11.0155C21.5896 11.5759 22.1883 12.3681 22.5111 13.283H24.3392C24.7536 13.283 25.1511 13.4476 25.4441 13.7406C25.7371 14.0337 25.9017 14.4311 25.9017 14.8455C25.9017 15.2599 25.7371 15.6573 25.4441 15.9504C25.1511 16.2434 24.7536 16.408 24.3392 16.408H22.5111C22.1883 17.3229 21.5896 18.1151 20.7977 18.6755C20.0057 19.2359 19.0594 19.5368 18.0892 19.5368C17.1191 19.5368 16.1728 19.2359 15.3808 18.6755C14.5888 18.1151 13.9902 17.3229 13.6674 16.408H2.46423C2.04983 16.408 1.6524 16.2434 1.35938 15.9504C1.06635 15.6573 0.901733 15.2599 0.901733 14.8455C0.901733 14.4311 1.06635 14.0337 1.35938 13.7406C1.6524 13.4476 2.04983 13.283 2.46423 13.283H13.6674ZM8.71423 22.658C8.29983 22.658 7.9024 22.8226 7.60938 23.1157C7.31635 23.4087 7.15173 23.8061 7.15173 24.2205C7.15173 24.6349 7.31635 25.0323 7.60938 25.3254C7.9024 25.6184 8.29983 25.783 8.71423 25.783C9.12863 25.783 9.52606 25.6184 9.81909 25.3254C10.1121 25.0323 10.2767 24.6349 10.2767 24.2205C10.2767 23.8061 10.1121 23.4087 9.81909 23.1157C9.52606 22.8226 9.12863 22.658 8.71423 22.658ZM4.29236 22.658C4.61517 21.7431 5.21383 20.9509 6.0058 20.3905C6.79776 19.8301 7.74406 19.5292 8.71423 19.5292C9.68441 19.5292 10.6307 19.8301 11.4227 20.3905C12.2146 20.9509 12.8133 21.7431 13.1361 22.658H24.3392C24.7536 22.658 25.1511 22.8226 25.4441 23.1157C25.7371 23.4087 25.9017 23.8061 25.9017 24.2205C25.9017 24.6349 25.7371 25.0323 25.4441 25.3254C25.1511 25.6184 24.7536 25.783 24.3392 25.783H13.1361C12.8133 26.6979 12.2146 27.4901 11.4227 28.0505C10.6307 28.6109 9.68441 28.9118 8.71423 28.9118C7.74406 28.9118 6.79776 28.6109 6.0058 28.0505C5.21383 27.4901 4.61517 26.6979 4.29236 25.783H2.46423C2.04983 25.783 1.6524 25.6184 1.35938 25.3254C1.06635 25.0323 0.901733 24.6349 0.901733 24.2205C0.901733 23.8061 1.06635 23.4087 1.35938 23.1157C1.6524 22.8226 2.04983 22.658 2.46423 22.658H4.29236Z" fill="#333333"/>
</svg>