<svg xmlns="http://www.w3.org/2000/svg" xmlns:xlink="http://www.w3.org/1999/xlink" xmlns:xodm="http://www.corel.com/coreldraw/odm/2003" xml:space="preserve" width="133.443mm" height="39.2688mm" version="1.1" style="shape-rendering:geometricPrecision; text-rendering:geometricPrecision; image-rendering:optimizeQuality; fill-rule:evenodd; clip-rule:evenodd" viewBox="0 0 13343.2 3926.57">
 <defs>
  <style type="text/css">
   <![CDATA[
    .fil1 {fill:#333E48;fill-rule:nonzero}
    .fil0 {fill:#333E48;fill-rule:nonzero}
    .fil2 {fill:#FED700;fill-rule:nonzero}
   ]]>
  </style>
 </defs>
    <g id="Warstwa_x0020_1">
  <metadata id="CorelCorpID_0Corel-Layer"/>
        <g id="_2152736397056">
   <path class="fil0" d="M1953.59 2442.15c-93.26,0 -177.19,-19.21 -251.81,-57.61 -74.59,-38.41 -133.01,-93.54 -175.26,-165.39 -42.24,-71.87 -63.34,-156.08 -63.34,-252.63 0,-96.52 21.11,-180.73 63.34,-252.6 42.25,-71.84 100.66,-126.98 175.26,-165.4 74.62,-38.39 158.55,-57.6 251.81,-57.6 93.23,0 177.18,19.21 251.78,57.6 74.59,38.42 133.01,93.55 175.26,165.4 42.24,71.87 63.36,156.08 63.36,252.6 0,96.55 -21.13,180.76 -63.36,252.63 -42.25,71.84 -100.66,126.98 -175.26,165.39 -74.6,38.4 -158.55,57.61 -251.78,57.61zm0 -315.97c34,0 62.52,-13.43 85.56,-40.32 23.03,-26.89 34.56,-66.66 34.56,-119.33 0,-52.64 -11.53,-92.41 -34.56,-119.3 -23.04,-26.89 -51.57,-40.32 -85.56,-40.32 -34.03,0 -62.55,13.43 -85.59,40.32 -23.03,26.89 -34.56,66.66 -34.56,119.3 0,52.67 11.25,92.44 33.74,119.33 22.5,26.89 51.29,40.32 86.41,40.32z"/>
            <path class="fil1" d="M4043.57 1673.62c37.29,-53.77 82.81,-96.8 136.59,-129.19 53.75,-32.35 109.7,-48.53 167.86,-48.53l0 390.01 -103.69 0c-69.09,0 -119.84,12.07 -152.22,36.2 -32.36,24.14 -48.54,66.92 -48.54,128.37l0 380.15 -365.35 0 0 -928.16 365.35 0 0 171.15z"/>
            <path class="fil1" d="M4397.39 1966.53c0,-97.63 16.72,-182.4 50.19,-254.24 33.46,-71.85 79.26,-126.72 137.42,-164.58 58.15,-37.85 123.42,-56.78 195.83,-56.78 60.35,0 112.44,12.35 156.33,37.03 43.89,24.71 77.34,58.43 100.4,101.22l0 -126.72 363.68 0 0 928.16 -363.68 0 0 -126.73c-23.06,42.81 -56.52,76.52 -100.4,101.22 -43.89,24.69 -95.98,37.04 -156.33,37.04 -72.41,0 -137.69,-18.93 -195.83,-56.78 -58.16,-37.86 -103.96,-92.72 -137.42,-164.58 -33.47,-71.87 -50.19,-156.62 -50.19,-254.27zm640.17 0c0,-49.36 -12.63,-87.76 -37.85,-115.19 -25.25,-27.43 -57.61,-41.14 -97.11,-41.14 -39.5,0 -71.85,13.71 -97.09,41.14 -25.22,27.43 -37.86,65.83 -37.86,115.19 0,49.39 12.64,87.77 37.86,115.22 25.24,27.43 57.6,41.14 97.09,41.14 39.51,0 71.86,-13.71 97.11,-41.14 25.22,-27.45 37.85,-65.83 37.85,-115.22z"/>
            <path class="fil1" d="M5931.14 1629.19c23.04,-42.8 56.22,-76.51 99.55,-101.22 43.35,-24.68 95.17,-37.03 155.52,-37.03 72.41,0 137.69,18.93 195.84,56.78 58.14,37.86 103.95,92.72 137.41,164.58 33.46,71.84 50.18,156.61 50.18,254.24 0,97.65 -16.72,182.4 -50.18,254.27 -33.46,71.85 -79.27,126.72 -137.41,164.58 -58.16,37.85 -123.43,56.78 -195.84,56.78 -60.35,0 -112.17,-12.35 -155.52,-37.04 -43.34,-24.7 -76.51,-58.42 -99.55,-101.22l0 126.73 -365.35 0 0 -1217.78 365.35 0 0 416.35zm268.24 337.34c0,-49.36 -12.61,-87.76 -37.85,-115.19 -25.25,-27.43 -57.61,-41.14 -97.09,-41.14 -39.5,0 -71.87,13.71 -97.09,41.14 -25.24,27.43 -37.85,65.83 -37.85,115.19 0,49.39 12.61,87.77 37.85,115.22 25.22,27.43 57.6,41.14 97.09,41.14 39.49,0 71.84,-13.71 97.09,-41.14 25.24,-27.45 37.85,-65.83 37.85,-115.22z"/>
            <path class="fil1" d="M6869.16 1428.42c-63.63,0 -114.65,-17 -153.05,-51.03 -38.39,-34 -57.6,-76.77 -57.6,-128.34 0,-52.67 19.21,-96.29 57.6,-130.83 38.4,-34.57 89.41,-51.85 153.05,-51.85 62.52,0 113.01,17.28 151.4,51.85 38.39,34.54 57.6,78.16 57.6,130.83 0,51.57 -19.21,94.34 -57.6,128.34 -38.39,34.03 -88.87,51.03 -151.4,51.03zm181.03 74.05l0 928.16 -365.35 0 0 -928.16 365.35 0z"/>
            <path class="fil1" d="M7165.39 1966.53c0,-97.63 16.72,-182.4 50.18,-254.24 33.46,-71.85 79.27,-126.72 137.43,-164.58 58.14,-37.85 123.41,-56.78 195.82,-56.78 60.35,0 112.45,12.35 156.34,37.03 43.88,24.71 77.34,58.43 100.39,101.22l0 -126.72 363.69 0 0 928.16 -363.69 0 0 -126.73c-23.05,42.81 -56.52,76.52 -100.39,101.22 -43.89,24.69 -95.99,37.04 -156.34,37.04 -72.41,0 -137.69,-18.93 -195.82,-56.78 -58.16,-37.86 -103.97,-92.72 -137.43,-164.58 -33.46,-71.87 -50.18,-156.62 -50.18,-254.27zm640.16 0c0,-49.36 -12.63,-87.76 -37.85,-115.19 -25.24,-27.43 -57.6,-41.14 -97.11,-41.14 -39.5,0 -71.85,13.71 -97.09,41.14 -25.22,27.43 -37.85,65.83 -37.85,115.19 0,49.39 12.63,87.77 37.85,115.22 25.24,27.43 57.6,41.14 97.09,41.14 39.52,0 71.87,-13.71 97.11,-41.14 25.22,-27.45 37.85,-65.83 37.85,-115.22z"/>
            <path class="fil1" d="M8699.13 1673.62c37.3,-53.77 82.82,-96.8 136.59,-129.19 53.75,-32.35 109.7,-48.53 167.86,-48.53l0 390.01 -103.68 0c-69.1,0 -119.85,12.07 -152.23,36.2 -32.36,24.14 -48.54,66.92 -48.54,128.37l0 380.15 -365.35 0 0 -928.16 365.35 0 0 171.15z"/>
            <polygon class="fil1" points="9696.41,2430.63 9467.67,2060.33 9467.67,2430.63 9102.32,2430.63 9102.32,1212.84 9467.67,1212.84 9467.67,1849.7 9699.7,1502.47 10124.27,1502.47 9777.05,1969.84 10132.51,2430.63 "/>
            <path class="fil1" d="M10165.43 1966.53c0,-97.63 16.72,-182.4 50.18,-254.24 33.46,-71.85 79.26,-126.72 137.43,-164.58 58.14,-37.85 123.41,-56.78 195.82,-56.78 60.35,0 112.45,12.35 156.33,37.03 43.89,24.71 77.34,58.43 100.4,101.22l0 -126.72 363.69 0 0 928.16 -363.69 0 0 -126.73c-23.06,42.81 -56.52,76.52 -100.4,101.22 -43.88,24.69 -95.98,37.04 -156.33,37.04 -72.41,0 -137.69,-18.93 -195.82,-56.78 -58.17,-37.86 -103.97,-92.72 -137.43,-164.58 -33.46,-71.87 -50.18,-156.62 -50.18,-254.27zm640.16 0c0,-49.36 -12.63,-87.76 -37.85,-115.19 -25.24,-27.43 -57.6,-41.14 -97.11,-41.14 -39.5,0 -71.85,13.71 -97.09,41.14 -25.22,27.43 -37.85,65.83 -37.85,115.19 0,49.39 12.63,87.77 37.85,115.22 25.24,27.43 57.6,41.14 97.09,41.14 39.52,0 71.87,-13.71 97.11,-41.14 25.22,-27.45 37.85,-65.83 37.85,-115.22z"/>
            <path class="fil2" d="M11514.87 2443.79c-63.63,0 -114.66,-17.02 -153.05,-51.03 -38.41,-34 -57.6,-76.8 -57.6,-128.36 0,-52.67 19.19,-96.27 57.6,-130.83 38.39,-34.57 89.41,-51.83 153.05,-51.83 62.52,0 113.01,17.26 151.4,51.83 38.39,34.56 57.6,78.16 57.6,130.83 0,51.56 -19.21,94.36 -57.6,128.36 -38.39,34.01 -88.87,51.03 -151.4,51.03z"/>
            <path class="fil2" d="M12224.15 1629.19c23.04,-42.8 56.22,-76.51 99.56,-101.22 43.35,-24.68 95.16,-37.03 155.51,-37.03 72.41,0 137.69,18.93 195.85,56.78 58.14,37.86 103.94,92.72 137.4,164.58 33.47,71.84 50.19,156.61 50.19,254.24 0,97.65 -16.72,182.4 -50.19,254.27 -33.46,71.85 -79.26,126.72 -137.4,164.58 -58.17,37.85 -123.44,56.78 -195.85,56.78 -60.35,0 -112.16,-12.35 -155.51,-37.04 -43.35,-24.7 -76.52,-58.42 -99.56,-101.22l0 571.04 -365.35 0 0 -1372.47 365.35 0 0 126.72zm268.25 337.34c0,-49.36 -12.62,-87.76 -37.86,-115.19 -25.24,-27.43 -57.6,-41.14 -97.09,-41.14 -39.49,0 -71.86,13.71 -97.09,41.14 -25.24,27.43 -37.85,65.83 -37.85,115.19 0,49.39 12.61,87.77 37.85,115.22 25.23,27.43 57.61,41.14 97.09,41.14 39.5,0 71.85,-13.71 97.09,-41.14 25.24,-27.45 37.86,-65.83 37.86,-115.22z"/>
            <polygon class="fil2" points="13343.2,1212.84 13343.2,2430.63 12977.85,2430.63 12977.85,1212.84 "/>
            <path class="fil1" d="M2924.53 1629.19c23.03,-42.8 56.21,-76.51 99.55,-101.22 43.35,-24.68 95.16,-37.03 155.51,-37.03 72.41,0 137.69,18.93 195.85,56.78 58.14,37.86 103.94,92.72 137.4,164.58 33.47,71.84 50.19,156.61 50.19,254.24 0,97.65 -16.72,182.4 -50.19,254.27 -33.46,71.85 -79.26,126.72 -137.4,164.58 -58.17,37.85 -123.44,56.78 -195.85,56.78 -60.35,0 -112.16,-12.35 -155.51,-37.04 -43.35,-24.7 -76.52,-58.42 -99.55,-101.22l0 126.73 -365.35 0 0 -1217.78 365.35 0 0 416.35zm268.24 337.34c0,-49.36 -12.61,-87.76 -37.86,-115.19 -25.24,-27.43 -57.6,-41.14 -97.09,-41.14 -39.49,0 -71.86,13.71 -97.08,41.14 -25.25,27.43 -37.86,65.83 -37.86,115.19 0,49.39 12.61,87.77 37.86,115.22 25.22,27.43 57.6,41.14 97.08,41.14 39.5,0 71.85,-13.71 97.09,-41.14 25.25,-27.45 37.86,-65.83 37.86,-115.22z"/>
            <path class="fil2" d="M2215.16 3601.51c41.3,-6.45 82.62,-14.49 123.89,-24.1 40.41,-9.41 80.09,-20.26 118.96,-32.55l-0.13 -413.87 81.08 -42.72c53.84,-28.33 106.07,-60.91 156.21,-97.35 49.92,-36.29 96.76,-75.74 140.09,-118.04l212.21 218.18c-54.85,53.58 -112.87,102.56 -173.48,146.65 -36.06,26.21 -73.45,51 -112.06,74.27l0.17 444.87 -95.51 37.27 0.2 0.48c-83.51,32.59 -169.51,59.26 -257.21,79.69 -85.84,20.01 -175.85,34.38 -269.28,42.83l-103.94 9.43 -0.11 -0.19 -1.28 0.11 -201.1 -409.05 -15.9 -1.34c-41.98,-3.72 -80.71,-8.43 -114.97,-14.4 -33.51,-5.87 -69.82,-14.11 -108.02,-24.01l-11.44 -3.01 -323.08 322.59 -95.25 -42.33c-84.59,-37.58 -164.02,-79.66 -237.88,-125.62 -77.23,-48.04 -150.81,-101.16 -220.11,-158.54l-80.95 -67.05 149.15 -437.11c-26.82,-31.84 -52.43,-64.77 -76.75,-98.73l-0.28 0.22c-23.78,-33.21 -46.64,-68.17 -68.5,-104.84l-460.25 0.18 -37.73 -96.62c-32.59,-83.52 -59.26,-169.5 -79.72,-257.25 -19.98,-85.84 -34.35,-175.82 -42.78,-269.21l-9.39 -103.95 410.19 -201.79 1.84 -25.11c3.4,-40.67 8.5,-81.82 15.77,-123.44 5.75,-32.96 13.04,-66.05 21.39,-99.16l1.21 -4.78 -321.09 -321.6 42.31 -95.27c37.57,-84.58 79.67,-164.03 125.64,-237.93 48.06,-77.26 101.13,-150.8 158.52,-220.05l67.06 -80.95 424.71 144.89c33.59,-29.12 68.17,-56.61 103.66,-82.4 36.06,-26.24 73.45,-51.03 112.06,-74.29l-0.15 -444.84 95.49 -37.29 -0.18 -0.47c83.51,-32.6 169.47,-59.27 257.19,-79.7 85.88,-20.01 175.87,-34.37 269.28,-42.81l104.25 -9.41 0.08 0.15 1.02 -0.08 201.08 409.02 15.9 1.32c41.96,3.74 80.8,8.46 114.97,14.43 33.51,5.86 69.79,14.1 108.02,24.01 35.02,9.08 68.73,19.1 101.54,29.63l-93 289.7c-28.55,-9.17 -56.93,-17.63 -84.85,-24.88 -24.76,-6.42 -52.49,-12.5 -84.17,-18.04 -33.96,-5.92 -63.07,-9.75 -88.72,-12.04 -29.66,-2.62 -60.59,-4.27 -92.16,-5.22l-92.02 -2.77 -187.05 -380.16c-41.21,6.44 -82.45,14.47 -123.63,24.05 -40.41,9.41 -80.09,20.27 -118.96,32.55l0.15 413.89 -81.1 42.7c-53.86,28.36 -106.11,60.91 -156.21,97.35 -49.92,36.29 -96.76,75.76 -140.07,118.05l-66.8 65.25 -396.46 -135.27c-24.89,34.02 -48.51,68.95 -70.72,104.66 -22.11,35.52 -42.68,71.28 -61.6,107.19l299.39 299.82 -27.02 87.33c-7.31,23.67 -14.64,49.41 -21.89,78.21 -6.27,24.87 -11.94,50.7 -16.63,77.71 -5.54,31.71 -9.5,63.8 -12.18,96.01 -3.23,38.43 -4.85,70.69 -5.37,98.75l-1.71 93.04 -384.19 188.97c6.47,41.68 14.58,83.42 24.27,125.08 9.43,40.38 20.29,80.06 32.56,118.93l429.37 -0.13 42.72 81.69c26,49.73 57.02,99.73 92.68,149.54l0 0.61c33.94,47.43 71.46,92.78 112.21,135.68l63.62 66.95 -138.61 406.17c34.04,24.9 68.96,48.54 104.7,70.74 35.52,22.09 71.26,42.66 107.12,61.56l302.7 -302.17 88.33 28.38c28.55,9.17 56.93,17.62 84.85,24.87 24.74,6.42 52.49,12.5 84.17,18.04 33.87,5.91 63.07,9.76 88.72,12.03 29.7,2.64 60.65,4.26 92.18,5.23l91.79 2.86 187 380.12z"/>
  </g>
 </g>
</svg>